<svg xmlns="http://www.w3.org/2000/svg" width="701" height="134" viewBox="0 0 701 134" fill="none">
<path d="M35.3852 0.984886L0.594662 35.5571C0.213906 35.9355 0 36.4487 0 36.9838V64.7302C0 65.8445 0.908998 66.7478 2.0303 66.7478H32.659C33.1975 66.7478 33.7139 66.5352 34.0947 66.1569L66.5745 33.8808C66.9553 33.5024 67.1692 32.9892 67.1692 32.4541V2.01757C67.1692 0.903295 66.2602 0 65.1389 0H37.7779C36.8804 0 36.0198 0.354274 35.3852 0.984886Z" fill="#0A57FF"/>
<path d="M99.3397 67.0602L68.2714 97.9335C67.8907 98.3119 67.6768 98.8251 67.6768 99.3602V131.982C67.6768 133.097 68.5858 134 69.7071 134H96.5945C97.1442 134 97.6704 133.779 98.0529 133.386L133.428 97.0937C133.795 96.7173 134 96.2139 134 95.69V68.0928C134 66.9786 133.091 66.0753 131.97 66.0753H101.732C100.835 66.0753 99.9743 66.4296 99.3397 67.0602Z" fill="#0A57FF"/>
<path d="M33.9714 67.783L0.56489 102.402C0.202393 102.777 0 103.277 0 103.798V131.646C0 132.76 0.908997 133.664 2.0303 133.664H32.9373C33.5072 133.664 34.0509 133.426 34.4355 133.008L66.8063 97.8342C67.1486 97.4623 67.3384 96.9766 67.3384 96.4726V68.7654C67.3384 67.6511 66.4294 66.7478 65.3081 66.7478H36.4138C35.4917 66.7478 34.6096 67.1217 33.9714 67.783Z" fill="#0A57FF"/>
<path d="M99.9029 0.773844L68.5786 32.5501C68.3688 32.7629 68.5205 33.1217 68.8203 33.1217H100.5L100.661 64.7937C100.664 65.392 101.393 65.6888 101.817 65.2647L133.409 33.712C133.787 33.3339 134 32.8223 134 32.289V2.1857C134 1.07143 133.091 0.16813 131.97 0.16813H101.353C100.808 0.16813 100.285 0.386446 99.9029 0.773844Z" fill="#0A57FF"/>
<path d="M204.46 120C197.107 120 190.528 118.743 184.722 116.229C179.014 113.715 174.514 110.041 171.225 105.207C167.935 100.373 166.194 94.5235 166 87.6588H186.754C186.851 90.6561 187.576 93.3633 188.931 95.7804C190.382 98.1975 192.414 100.131 195.027 101.581C197.639 102.935 200.784 103.612 204.46 103.612C207.46 103.612 210.121 103.177 212.443 102.307C214.765 101.34 216.555 99.9862 217.813 98.2459C219.167 96.4088 219.844 94.1367 219.844 91.4296C219.844 88.529 219.119 86.1119 217.667 84.1782C216.313 82.2445 214.378 80.6008 211.862 79.2472C209.346 77.797 206.492 76.5401 203.299 75.4765C200.203 74.3163 196.962 73.1561 193.575 71.9959C185.351 69.192 179.062 65.5663 174.708 61.1188C170.451 56.6713 168.322 50.8218 168.322 43.5704C168.322 37.6726 169.773 32.5967 172.676 28.3425C175.579 24.0884 179.643 20.8011 184.867 18.4807C190.092 16.1602 196.043 15 202.719 15C209.588 15 215.636 16.2086 220.86 18.6257C226.085 20.9461 230.197 24.3301 233.197 28.7776C236.196 33.2251 237.793 38.4461 237.986 44.4406H216.942C216.845 41.8301 216.168 39.558 214.91 37.6243C213.749 35.6906 212.056 34.1436 209.83 32.9834C207.702 31.8232 205.186 31.2431 202.283 31.2431C199.768 31.1464 197.446 31.5331 195.317 32.4033C193.285 33.1768 191.689 34.3854 190.528 36.029C189.366 37.576 188.786 39.6547 188.786 42.2652C188.786 44.6823 189.318 46.7127 190.382 48.3564C191.543 50 193.14 51.4503 195.172 52.7072C197.3 53.8674 199.768 55.0276 202.574 56.1878C205.476 57.2514 208.718 58.4116 212.298 59.6685C217.426 61.4088 222.118 63.4876 226.375 65.9047C230.633 68.2251 234.019 71.2707 236.535 75.0414C239.147 78.8122 240.453 83.6948 240.453 89.6892C240.453 95.1036 239.05 100.131 236.245 104.772C233.535 109.316 229.52 112.99 224.198 115.794C218.877 118.598 212.298 120 204.46 120Z" fill="#ffffff"/>
<path d="M271.436 120C265.534 120 260.503 118.743 256.342 116.229C252.182 113.715 248.989 109.993 246.763 105.062C244.538 100.035 243.425 93.895 243.425 86.6436V46.326H262.873V84.9033C262.873 90.8978 264.083 95.4903 266.501 98.6809C269.017 101.872 272.887 103.467 278.112 103.467C281.499 103.467 284.45 102.693 286.965 101.146C289.578 99.5028 291.609 97.1823 293.061 94.1851C294.512 91.1878 295.238 87.6105 295.238 83.453V46.326H314.831V118.26H298.141L296.399 106.802H295.818C293.593 110.863 290.448 114.102 286.385 116.519C282.418 118.84 277.435 120 271.436 120Z" fill="#ffffff"/>
<path d="M318.515 118.26V102.887L355.088 62.279H318.95V46.326H377.149V61.6989L340.14 102.307H377.874V118.26H318.515Z" fill="#ffffff"/>
<path d="M405.012 120C399.303 120 394.562 119.033 390.789 117.099C387.112 115.166 384.403 112.555 382.661 109.268C380.92 105.981 380.049 102.355 380.049 98.3909C380.049 93.9434 381.162 90.0276 383.387 86.6436C385.709 83.2597 389.192 80.6492 393.837 78.8122C398.481 76.8784 404.335 75.9116 411.398 75.9116H429.539C429.539 72.3343 429.007 69.3854 427.943 67.0649C426.975 64.7445 425.427 63.0041 423.299 61.8439C421.267 60.6837 418.654 60.1036 415.462 60.1036C411.688 60.1036 408.447 60.9738 405.738 62.7141C403.125 64.3577 401.48 66.9682 400.803 70.5456H381.791C382.371 65.2279 384.113 60.6354 387.015 56.768C390.015 52.9006 393.933 49.9033 398.771 47.7762C403.706 45.6492 409.269 44.5856 415.462 44.5856C422.428 44.5856 428.427 45.7459 433.458 48.0663C438.489 50.2901 442.36 53.6257 445.069 58.0732C447.778 62.424 449.132 67.7417 449.132 74.0262V118.26H432.878L430.846 107.093H430.265C428.717 109.22 427.024 111.105 425.185 112.749C423.444 114.392 421.509 115.746 419.38 116.809C417.252 117.873 414.978 118.646 412.559 119.13C410.14 119.71 407.624 120 405.012 120ZM411.398 104.917C414.107 104.917 416.429 104.482 418.364 103.612C420.396 102.645 422.138 101.388 423.589 99.8412C425.04 98.2942 426.153 96.5055 426.927 94.4751C427.798 92.3481 428.378 90.1727 428.669 87.9489H413.575C410.575 87.9489 408.108 88.3356 406.173 89.1091C404.335 89.7859 402.98 90.8011 402.109 92.1547C401.238 93.4116 400.803 94.9102 400.803 96.6506C400.803 98.3909 401.238 99.8895 402.109 101.146C402.98 102.403 404.238 103.37 405.883 104.047C407.528 104.627 409.366 104.917 411.398 104.917Z" fill="#ffffff"/>
<path d="M454.94 118.26V16.7403H474.533V103.032H519.089V118.26H454.94Z" fill="#ffffff"/>
<path d="M523.581 118.26V46.326H543.174V118.26H523.581ZM533.45 37.1892C529.87 37.1892 526.919 36.174 524.597 34.1436C522.372 32.0166 521.259 29.3577 521.259 26.1671C521.259 22.9765 522.372 20.3177 524.597 18.1906C526.919 16.0635 529.87 15 533.45 15C537.03 15 539.933 16.0635 542.158 18.1906C544.384 20.3177 545.496 22.9765 545.496 26.1671C545.496 29.261 544.384 31.8715 542.158 33.9986C539.933 36.1257 537.03 37.1892 533.45 37.1892Z" fill="#ffffff"/>
<path d="M551.312 118.26V46.326H568.002L569.744 58.0732H570.324C572.647 53.8191 575.791 50.5318 579.758 48.2113C583.725 45.7942 588.708 44.5856 594.707 44.5856C600.706 44.5856 605.785 45.8909 609.946 48.5014C614.106 51.0152 617.251 54.7376 619.38 59.6685C621.605 64.5994 622.718 70.6906 622.718 77.942V118.26H603.125V79.6823C603.125 73.6878 601.915 69.0953 599.496 65.9047C597.077 62.7141 593.256 61.1188 588.031 61.1188C584.741 61.1188 581.79 61.9406 579.178 63.5843C576.565 65.1312 574.533 67.4033 573.082 70.4006C571.631 73.3011 570.905 76.8785 570.905 81.1326V118.26H551.312Z" fill="#ffffff"/>
<path d="M676.763 118.26L645.269 78.6671L672.989 46.326H696.211L660.363 86.7887L660.218 71.2707L701 118.26H676.763ZM628.579 118.26V16.7403H648.171V118.26H628.579Z" fill="#ffffff"/>
</svg>