<svg width="206" height="206" viewBox="0 0 206 206" fill="none" xmlns="http://www.w3.org/2000/svg">
<rect width="206" height="206" rx="19" fill="black"/>
<path d="M77.5194 49.7938L49.4793 77.658C49.1724 77.9629 49 78.3765 49 78.8078V101.171C49 102.069 49.7326 102.797 50.6364 102.797H75.3222C75.7562 102.797 76.1724 102.625 76.4793 102.32L102.657 76.3069C102.964 76.0019 103.136 75.5883 103.136 75.1571V50.6261C103.136 49.728 102.404 49 101.5 49H79.4479C78.7245 49 78.0308 49.2855 77.5194 49.7938Z" fill="#0A57FF"/>
<path d="M129.065 103.048L104.025 127.932C103.718 128.236 103.545 128.65 103.545 129.081V155.374C103.545 156.272 104.278 157 105.182 157H126.852C127.295 157 127.719 156.821 128.028 156.505L156.539 127.255C156.835 126.951 157 126.546 157 126.123V103.881C157 102.983 156.267 102.255 155.364 102.255H130.993C130.27 102.255 129.576 102.54 129.065 103.048Z" fill="#0A57FF"/>
<path d="M76.38 103.631L49.4553 131.533C49.1631 131.835 49 132.239 49 132.658V155.103C49 156.001 49.7326 156.729 50.6364 156.729H75.5465C76.0058 156.729 76.444 156.537 76.754 156.2L102.844 127.851C103.12 127.552 103.273 127.16 103.273 126.754V104.423C103.273 103.525 102.54 102.797 101.636 102.797H78.3484C77.6053 102.797 76.8943 103.098 76.38 103.631Z" fill="#0A57FF"/>
<path d="M129.519 49.6237L104.272 75.2344C104.103 75.406 104.226 75.6951 104.467 75.6951H130L130.13 101.222C130.132 101.704 130.72 101.943 131.062 101.601L156.524 76.1709C156.829 75.8662 157 75.4538 157 75.024V50.7616C157 49.8635 156.267 49.1355 155.364 49.1355H130.688C130.248 49.1355 129.827 49.3115 129.519 49.6237Z" fill="#0A57FF"/>
<path d="M77.5194 49.7938L49.4793 77.658C49.1724 77.9629 49 78.3765 49 78.8078V101.171C49 102.069 49.7326 102.797 50.6364 102.797H75.3222C75.7562 102.797 76.1724 102.625 76.4793 102.32L102.657 76.3069C102.964 76.0019 103.136 75.5883 103.136 75.1571V50.6261C103.136 49.728 102.404 49 101.5 49H79.4479C78.7245 49 78.0308 49.2855 77.5194 49.7938Z" stroke="black"/>
<path d="M129.065 103.048L104.025 127.932C103.718 128.236 103.545 128.65 103.545 129.081V155.374C103.545 156.272 104.278 157 105.182 157H126.852C127.295 157 127.719 156.821 128.028 156.505L156.539 127.255C156.835 126.951 157 126.546 157 126.123V103.881C157 102.983 156.267 102.255 155.364 102.255H130.993C130.27 102.255 129.576 102.54 129.065 103.048Z" stroke="black"/>
<path d="M76.38 103.631L49.4553 131.533C49.1631 131.835 49 132.239 49 132.658V155.103C49 156.001 49.7326 156.729 50.6364 156.729H75.5465C76.0058 156.729 76.444 156.537 76.754 156.2L102.844 127.851C103.12 127.552 103.273 127.16 103.273 126.754V104.423C103.273 103.525 102.54 102.797 101.636 102.797H78.3484C77.6053 102.797 76.8943 103.098 76.38 103.631Z" stroke="black"/>
<path d="M129.519 49.6237L104.272 75.2344C104.103 75.406 104.226 75.6951 104.467 75.6951H130L130.13 101.222C130.132 101.704 130.72 101.943 131.062 101.601L156.524 76.1709C156.829 75.8662 157 75.4538 157 75.024V50.7616C157 49.8635 156.267 49.1355 155.364 49.1355H130.688C130.248 49.1355 129.827 49.3115 129.519 49.6237Z" stroke="black"/>
</svg>
